<svg xmlns="http://www.w3.org/2000/svg" viewBox="0 0 218.35 100.63"><title>champions</title><g id="Layer_2" data-name="Layer 2"><path d="M25.8,31.35a1.37,1.37,0,0,1-.75,1.3l-6,3.3a7.41,7.41,0,0,1-3.55.95H7.4a7.3,7.3,0,0,1-5.25-2A6.78,6.78,0,0,1,0,29.75V14.15a6.63,6.63,0,0,1,3.65-6.3l7-3.8a7.41,7.41,0,0,1,3.55-.95h10.2A.75.75,0,0,1,25.3,4V8.6a.75.75,0,0,1-.85.85H9.4c-.57,0-.85.3-.85.9v19.3c0,.57.3.85.9.85H24.9C25.5,30.5,25.8,30.78,25.8,31.35Z"/><path d="M52.9,36.1c0,.53-.28.8-.84.8H45.69a.7.7,0,0,1-.79-.8v-18A.76.76,0,0,0,44,17.2H37.56c-.54,0-.81.28-.81.85V36.1c0,.53-.28.8-.85.8H29.54a.7.7,0,0,1-.79-.8V.8a.7.7,0,0,1,.79-.8H35.9c.57,0,.85.27.85.8V12.7c0,.53.27.73.8.6l8.58-2.4a5.08,5.08,0,0,1,1.35-.2,5.28,5.28,0,0,1,3.84,1.55,5.12,5.12,0,0,1,1.58,3.8Z"/><path d="M80.55,36.1c0,.53-.28.8-.85.8H73.34a.7.7,0,0,1-.79-.8v-.75c0-.53-.27-.73-.8-.6L63,37.15a5.5,5.5,0,0,1-1.4.15A5.38,5.38,0,0,1,56.2,32V21.6a6.49,6.49,0,0,1,3.5-6l6.2-3.55a6.85,6.85,0,0,1,3.45-1H79.7a.75.75,0,0,1,.85.85Zm-8-6.1V18.05a.76.76,0,0,0-.86-.85H65c-.54,0-.81.28-.81.85V30a.71.71,0,0,0,.81.8h6.68C72.26,30.8,72.55,30.53,72.55,30Z"/><path d="M123.5,36.1c0,.53-.28.8-.85.8h-6.36a.7.7,0,0,1-.79-.8v-18a.76.76,0,0,0-.86-.85h-5.83a.76.76,0,0,0-.86.85V36.1a.71.71,0,0,1-.8.8h-6.36c-.56,0-.84-.27-.84-.8v-18c0-.57-.27-.85-.81-.85H93.3c-.53,0-.8.28-.8.85V36.1c0,.53-.28.8-.85.8H85.29a.7.7,0,0,1-.79-.8V12c0-.57.26-.85.79-.85h6.36a.75.75,0,0,1,.85.85v.75c0,.57.27.77.8.6l7.91-2.4a4.9,4.9,0,0,1,1.41-.2,5.3,5.3,0,0,1,4.65,2.6.57.57,0,0,0,.7.2l8.77-2.6a4.64,4.64,0,0,1,1.35-.2,5.28,5.28,0,0,1,3.83,1.55,5.12,5.12,0,0,1,1.58,3.8Z"/><path d="M151.85,26.4a6.48,6.48,0,0,1-3.51,6L142.07,36a6.69,6.69,0,0,1-3.41.9H136.3c-.53,0-.8.28-.8.85V47.2a.75.75,0,0,1-.85.85h-6.36c-.53,0-.79-.28-.79-.85V12c0-.57.26-.85.79-.85h6.36a.75.75,0,0,1,.85.85v.75c0,.53.27.73.8.6l8.78-2.4a5.45,5.45,0,0,1,1.35-.2,5.28,5.28,0,0,1,3.84,1.55,5.12,5.12,0,0,1,1.58,3.8Zm-8,3.6V18.05a.76.76,0,0,0-.86-.85h-6.68c-.54,0-.81.28-.81.85V30a.71.71,0,0,0,.81.8H143C143.56,30.8,143.85,30.53,143.85,30Z"/><path d="M163,5.25c0,.53-.28.8-.85.8h-6.36a.7.7,0,0,1-.79-.8V.8a.7.7,0,0,1,.79-.8h6.36c.57,0,.85.27.85.8Zm0,30.85c0,.53-.28.8-.85.8h-6.36a.7.7,0,0,1-.79-.8V12c0-.57.26-.85.79-.85h6.36A.75.75,0,0,1,163,12Z"/><path d="M191,26.15a6.53,6.53,0,0,1-3.5,6.05l-6.75,3.9a6.73,6.73,0,0,1-3.45.9H173.3a7.08,7.08,0,0,1-7.1-7.1v-8a6.57,6.57,0,0,1,3.5-6l6.8-3.95a6.65,6.65,0,0,1,3.4-.9h3.95a6.78,6.78,0,0,1,5,2.1,6.9,6.9,0,0,1,2.08,5Zm-8.25,4v-12a.75.75,0,0,0-.85-.85h-6.6c-.53,0-.8.28-.8.85v12a.71.71,0,0,0,.8.8h6.6C182.42,30.9,182.7,30.63,182.7,30.1Z"/><path d="M218.35,36.1c0,.53-.28.8-.85.8h-6.36a.7.7,0,0,1-.79-.8v-18a.76.76,0,0,0-.86-.85H203c-.54,0-.81.28-.81.85V36.1c0,.53-.28.8-.85.8H195a.7.7,0,0,1-.79-.8V12c0-.57.26-.85.79-.85h6.36a.75.75,0,0,1,.85.85v.75c0,.53.27.73.8.6l8.58-2.4a5,5,0,0,1,1.35-.2,5.3,5.3,0,0,1,3.84,1.55,5.12,5.12,0,0,1,1.58,3.8Z"/><path d="M30,88.88a6.84,6.84,0,0,1-3.6,6.3l-7,4.1a6.92,6.92,0,0,1-3.55,1H.85A.75.75,0,0,1,0,99.38V67.28a.76.76,0,0,1,.86-.85H7.54a.76.76,0,0,1,.86.85V68c0,.57.32.79.95.65l13.07-2.5a10,10,0,0,1,1.74-.2,5.34,5.34,0,0,1,4,1.65,5.51,5.51,0,0,1,1.62,4v3.7a7.07,7.07,0,0,1-2.3,5.3.88.88,0,0,0-.25.65.9.9,0,0,0,.3.65A7.31,7.31,0,0,1,30,87.53Zm-8.9-9.75V73.68a.8.8,0,0,0-.9-.9H9.25c-.57,0-.85.3-.85.9v5.45c0,.57.3.85.9.85H20.15C20.75,80,21.05,79.7,21.05,79.13Zm0,13.85v-5.7c0-.56-.3-.85-.9-.85H9.3c-.6,0-.9.29-.9.85V93c0,.57.3.85.9.85H20.15C20.75,93.83,21.05,93.55,21.05,93Z"/><path d="M51.7,79.73a.71.71,0,0,1-.8.8H41.75c-.53,0-.8.29-.8.85V99.43c0,.54-.28.8-.85.8H33.74a.7.7,0,0,1-.79-.8V75.28c0-.56.26-.85.79-.85H40.1a.75.75,0,0,1,.85.85V76a.71.71,0,0,0,.8.8.93.93,0,0,0,.45-.1l3-2a5.47,5.47,0,0,1,3.11-.85H50.9c.53,0,.8.29.8.85Z"/><path d="M74.35,99.43c0,.54-.28.8-.85.8H67.14a.7.7,0,0,1-.79-.8v-.75c0-.53-.27-.73-.8-.6l-8.78,2.4a5.5,5.5,0,0,1-1.4.15A5.38,5.38,0,0,1,50,95.28V84.93a6.51,6.51,0,0,1,3.5-6l6.2-3.55a6.85,6.85,0,0,1,3.45-.95H73.5a.75.75,0,0,1,.85.85Zm-8-6.1v-12a.76.76,0,0,0-.86-.85H58.81c-.54,0-.81.29-.81.85v12a.71.71,0,0,0,.81.8h6.68C66.06,94.13,66.35,93.87,66.35,93.33Z"/><path d="M102.45,99.43c0,.54-.28.8-.85.8H95.24a.7.7,0,0,1-.79-.8V81.38a.76.76,0,0,0-.86-.85H87.11c-.54,0-.81.29-.81.85V99.43c0,.54-.28.8-.85.8H79.09a.7.7,0,0,1-.79-.8V75.28c0-.56.26-.85.79-.85h6.36a.75.75,0,0,1,.85.85V76c0,.54.27.74.8.6l8.58-2.4A5.08,5.08,0,0,1,97,74a5.28,5.28,0,0,1,3.84,1.55,5.14,5.14,0,0,1,1.58,3.8Z"/><path d="M130.1,99.43c0,.54-.28.8-.85.8h-6.36a.7.7,0,0,1-.79-.8v-.75c0-.53-.27-.73-.8-.6l-8.78,2.4a5.53,5.53,0,0,1-1.41.15,5.38,5.38,0,0,1-5.36-5.35V84.93a6.5,6.5,0,0,1,3.51-6l6.22-3.55a6.89,6.89,0,0,1,3.46-.95h2.31c.56,0,.85-.26.85-.8v-9.5a.7.7,0,0,1,.79-.8h6.36c.57,0,.85.27.85.8Zm-8-6.1v-12a.76.76,0,0,0-.86-.85h-6.68c-.54,0-.81.29-.81.85v12a.71.71,0,0,0,.81.8h6.68C121.81,94.13,122.1,93.87,122.1,93.33Z"/><path d="M155.9,90.4a6.19,6.19,0,0,1-3.05,5.82l-6,3.46a5.86,5.86,0,0,1-3,.8H134.2c-.57,0-.85-.27-.85-.8V95.14a.76.76,0,0,1,.85-.86h13.3c.5,0,.75-.23.75-.7v-2.4a.66.66,0,0,0-.75-.75H139a6.57,6.57,0,0,1-4.63-1.67,5.81,5.81,0,0,1-1.82-4.48,6.17,6.17,0,0,1,3-5.8l6-3.45a6,6,0,0,1,3-.8h9.1c.53,0,.8.29.8.86v4.54a.71.71,0,0,1-.8.8H140.9c-.47,0-.7.25-.7.74v2.27a.61.61,0,0,0,.7.69h8.5a6.64,6.64,0,0,1,4.6,1.71,5.65,5.65,0,0,1,1.9,4.41Z"/></g></svg>