<svg xmlns="http://www.w3.org/2000/svg" viewBox="0 0 197.5 111.38"><title>hyundai</title><g id="Layer_2" data-name="Layer 2"><path d="M28.75,36.05c0,.57-.3.85-.9.85h-6.6c-.6,0-.9-.28-.9-.85V24a.75.75,0,0,0-.85-.85H9.3c-.6,0-.9.28-.9.85v12.1a.76.76,0,0,1-.86.85H.86A.76.76,0,0,1,0,36.05V4A.76.76,0,0,1,.86,3.1H7.54A.76.76,0,0,1,8.4,4V15.8c0,.57.3.85.9.85H19.5a.75.75,0,0,0,.85-.85V4c0-.57.3-.85.9-.85h6.6c.6,0,.9.28.9.85Z"/><path d="M57.4,39a6.65,6.65,0,0,1-.9,3.4l-3.57,6.15a1.3,1.3,0,0,1-1.2.7H50.19a.7.7,0,0,1-.79-.8V35.35c0-.53-.27-.73-.8-.6L40,37.15a5.5,5.5,0,0,1-1.4.15A5.38,5.38,0,0,1,33.25,32V12c0-.57.26-.85.79-.85H40.4a.75.75,0,0,1,.85.85V30a.71.71,0,0,0,.81.8h6.48c.57,0,.86-.27.86-.8V12c0-.57.26-.85.79-.85h6.36a.75.75,0,0,1,.85.85Z"/><path d="M85.55,36.1c0,.53-.28.8-.85.8H78.34a.7.7,0,0,1-.79-.8v-.75c0-.53-.27-.73-.8-.6l-8.58,2.4a5.53,5.53,0,0,1-1.41.15A5.19,5.19,0,0,1,63,35.73,5.14,5.14,0,0,1,61.4,32V12c0-.57.26-.85.79-.85h6.36a.75.75,0,0,1,.85.85V30a.71.71,0,0,0,.81.8h6.48c.57,0,.86-.27.86-.8V12c0-.57.26-.85.79-.85H84.7a.75.75,0,0,1,.85.85Z"/><path d="M113.7,36.1c0,.53-.28.8-.85.8h-6.36a.7.7,0,0,1-.79-.8v-18a.76.76,0,0,0-.86-.85H98.36c-.54,0-.81.28-.81.85V36.1c0,.53-.28.8-.85.8H90.34a.7.7,0,0,1-.79-.8V12c0-.57.26-.85.79-.85H96.7a.75.75,0,0,1,.85.85v.75c0,.53.27.73.8.6l8.58-2.4a5,5,0,0,1,1.35-.2,5.3,5.3,0,0,1,3.84,1.55,5.12,5.12,0,0,1,1.58,3.8Z"/><path d="M141.35,36.1c0,.53-.28.8-.85.8h-6.36a.7.7,0,0,1-.79-.8v-.75q0-.8-.81-.6l-8.77,2.4a5.53,5.53,0,0,1-1.41.15,5.19,5.19,0,0,1-3.78-1.57A5.14,5.14,0,0,1,117,32V21.6a6.48,6.48,0,0,1,3.51-6l6.22-3.55a6.86,6.86,0,0,1,3.46-1h2.31c.56,0,.85-.27.85-.8V.8a.7.7,0,0,1,.79-.8h6.36c.57,0,.85.27.85.8Zm-8-6.1V18.05a.76.76,0,0,0-.86-.85h-6.68c-.54,0-.81.28-.81.85V30a.71.71,0,0,0,.81.8h6.68C133.06,30.8,133.35,30.53,133.35,30Z"/><path d="M169,36.1c0,.53-.28.8-.85.8h-6.36a.7.7,0,0,1-.79-.8v-.75q0-.8-.81-.6l-8.77,2.4a5.53,5.53,0,0,1-1.41.15,5.19,5.19,0,0,1-3.78-1.57A5.14,5.14,0,0,1,144.6,32V21.6a6.47,6.47,0,0,1,3.5-6l6.2-3.55a6.85,6.85,0,0,1,3.45-1H168.1A.75.75,0,0,1,169,12ZM161,30V18.05a.76.76,0,0,0-.86-.85h-6.68c-.54,0-.81.28-.81.85V30a.71.71,0,0,0,.81.8h6.68C160.66,30.8,161,30.53,161,30Z"/><path d="M180.8,5.25c0,.53-.28.8-.85.8h-6.36a.7.7,0,0,1-.79-.8V.8a.7.7,0,0,1,.79-.8H180c.57,0,.85.27.85.8Zm0,30.85c0,.53-.28.8-.85.8h-6.36a.7.7,0,0,1-.79-.8V12c0-.57.26-.85.79-.85H180a.75.75,0,0,1,.85.85Z"/><path d="M30.3,89.15a6.81,6.81,0,0,1-3.65,6.29l-7,4.1a7,7,0,0,1-3.55.94H7.4a7.09,7.09,0,0,1-5.25-2.17A7.22,7.22,0,0,1,0,93V77.47a6.88,6.88,0,0,1,3.65-6.29l7-4.15a6.86,6.86,0,0,1,3.55-1H22.9a7.08,7.08,0,0,1,5.25,2.2,7.32,7.32,0,0,1,2.15,5.29Zm-8.6,3.79V73.68c0-.6-.28-.9-.85-.9H9.45c-.57,0-.85.3-.85.9V92.94a.75.75,0,0,0,.85.84h11.4A.75.75,0,0,0,21.7,92.94Z"/><path d="M53.05,79.73a.71.71,0,0,1-.8.8H43.1c-.53,0-.8.29-.8.85V99.43c0,.54-.28.8-.85.8H35.09a.7.7,0,0,1-.79-.8V75.28c0-.56.26-.85.79-.85h6.36a.75.75,0,0,1,.85.85V76a.71.71,0,0,0,.8.8.93.93,0,0,0,.45-.1l3-2a5.47,5.47,0,0,1,3.11-.85h2.62c.53,0,.8.29.8.85Z"/><path d="M64.45,68.58c0,.54-.28.8-.85.8H57.24a.7.7,0,0,1-.79-.8V64.13a.7.7,0,0,1,.79-.8H63.6c.57,0,.85.27.85.8Zm0,30.85c0,.54-.28.8-.85.8H57.24a.7.7,0,0,1-.79-.8V75.28c0-.56.26-.85.79-.85H63.6a.75.75,0,0,1,.85.85Z"/><path d="M92.05,100.53a6.55,6.55,0,0,1-3.5,6l-6.8,4a6.65,6.65,0,0,1-3.4.9H69.4a.75.75,0,0,1-.85-.85v-4.4a.75.75,0,0,1,.85-.85H83.2c.56,0,.85-.26.85-.8v-5.8c0-.53-.27-.73-.8-.6l-8.78,2.4a5.5,5.5,0,0,1-1.4.15,5.38,5.38,0,0,1-5.37-5.35V84.93a6.51,6.51,0,0,1,3.5-6l6.2-3.55a6.85,6.85,0,0,1,3.45-.95H91.2a.75.75,0,0,1,.85.85Zm-8-7.2v-12a.76.76,0,0,0-.86-.85H76.51c-.54,0-.81.29-.81.85v12a.71.71,0,0,0,.81.8h6.68C83.76,94.13,84.05,93.87,84.05,93.33Z"/><path d="M103.9,68.58c0,.54-.28.8-.85.8H96.69a.7.7,0,0,1-.79-.8V64.13a.7.7,0,0,1,.79-.8h6.36c.57,0,.85.27.85.8Zm0,30.85c0,.54-.28.8-.85.8H96.69a.7.7,0,0,1-.79-.8V75.28c0-.56.26-.85.79-.85h6.36a.75.75,0,0,1,.85.85Z"/><path d="M132,99.43c0,.54-.28.8-.85.8h-6.36a.7.7,0,0,1-.79-.8V81.38a.76.76,0,0,0-.86-.85h-6.48c-.54,0-.81.29-.81.85V99.43c0,.54-.28.8-.85.8h-6.36a.7.7,0,0,1-.79-.8V75.28c0-.56.26-.85.79-.85H115a.75.75,0,0,1,.85.85V76c0,.54.27.74.8.6l8.58-2.4a5.08,5.08,0,0,1,1.35-.2,5.28,5.28,0,0,1,3.84,1.55,5.14,5.14,0,0,1,1.58,3.8Z"/><path d="M159.65,99.43c0,.54-.28.8-.85.8h-6.36a.7.7,0,0,1-.79-.8v-.75c0-.53-.27-.73-.8-.6l-8.78,2.4a5.53,5.53,0,0,1-1.41.15,5.38,5.38,0,0,1-5.36-5.35V84.93a6.49,6.49,0,0,1,3.5-6l6.2-3.55a6.85,6.85,0,0,1,3.45-.95H158.8a.76.76,0,0,1,.85.85Zm-8-6.1v-12a.76.76,0,0,0-.86-.85h-6.68c-.54,0-.81.29-.81.85v12a.71.71,0,0,0,.81.8h6.68C151.36,94.13,151.65,93.87,151.65,93.33Z"/><path d="M171.6,99.43c0,.54-.28.8-.85.8h-6.36a.7.7,0,0,1-.79-.8V64.13a.7.7,0,0,1,.79-.8h6.36c.57,0,.85.27.85.8Z"/><path d="M197.5,90.4a6.19,6.19,0,0,1-3.05,5.82l-6,3.46a5.92,5.92,0,0,1-3,.8H175.8c-.57,0-.85-.27-.85-.8V95.14a.76.76,0,0,1,.85-.86h13.3c.5,0,.75-.23.75-.7v-2.4a.66.66,0,0,0-.75-.75h-8.5A6.57,6.57,0,0,1,176,88.76a5.78,5.78,0,0,1-1.82-4.48,6.15,6.15,0,0,1,3-5.8l6-3.45a6,6,0,0,1,3-.8h9.1c.53,0,.8.29.8.86v4.54a.71.71,0,0,1-.8.8H182.5c-.47,0-.7.25-.7.74v2.27a.61.61,0,0,0,.7.69H191a6.64,6.64,0,0,1,4.6,1.71,5.68,5.68,0,0,1,1.9,4.41Z"/></g></svg>